<svg xmlns="http://www.w3.org/2000/svg" version="1.1" width="1024px" height="1024px" style="shape-rendering:geometricPrecision; text-rendering:geometricPrecision; image-rendering:optimizeQuality; fill-rule:evenodd; clip-rule:evenodd" xmlns:xlink="http://www.w3.org/1999/xlink">
<g></g>
<g><path style="opacity:1" fill="#513421" d="M 760.5,273.5 C 756.891,292.759 753.891,312.259 751.5,332C 751.514,333.385 751.848,334.551 752.5,335.5C 752.283,339.705 751.617,343.705 750.5,347.5C 750.649,346.448 750.483,345.448 750,344.5C 747.598,356.59 746.431,368.59 746.5,380.5C 745.429,391.321 743.595,401.988 741,412.5C 736.96,415.646 732.46,416.479 727.5,415C 728.791,425.418 729.291,435.918 729,446.5C 727.704,448.815 725.704,449.815 723,449.5C 675.697,437.549 628.531,425.049 581.5,412C 572.959,410.648 565.793,406.814 560,400.5C 557.718,396.821 556.551,392.821 556.5,388.5C 563.766,326.474 571.266,264.474 579,202.5C 586.345,189.564 597.511,182.23 612.5,180.5C 657.987,191.372 703.32,202.872 748.5,215C 761.389,218.318 767.223,226.484 766,239.5C 764.196,250.983 762.362,262.317 760.5,273.5 Z" data-index="1"></path></g>
<g><path style="opacity:1" fill="#faf9f8" d="M 600.5,269.5 C 601.764,259.531 602.764,249.531 603.5,239.5C 605.546,226.342 607.379,213.009 609,199.5C 612.149,197.638 615.649,196.971 619.5,197.5C 613.167,251.499 606.834,305.499 600.5,359.5C 597.123,359.041 593.789,358.374 590.5,357.5C 592.802,328.049 596.136,298.716 600.5,269.5 Z" data-index="2"></path></g>
<g><path style="opacity:1" fill="#4e3220" d="M 496.5,222.5 C 500.691,223.262 504.358,225.096 507.5,228C 516.333,236.833 525.167,245.667 534,254.5C 536.54,259.097 535.707,262.93 531.5,266C 520.982,272.182 511.315,279.515 502.5,288C 494.317,290.99 490.817,288.156 492,279.5C 496.738,274.884 501.571,270.384 506.5,266C 481.603,265.233 457.436,269.066 434,277.5C 428.758,275.479 427.258,271.813 429.5,266.5C 440.158,260.831 451.491,256.998 463.5,255C 479.371,252.19 495.371,250.856 511.5,251C 505.031,245.532 498.864,239.699 493,233.5C 491.663,228.872 492.83,225.205 496.5,222.5 Z" data-index="3"></path></g>
<g><path style="opacity:1" fill="#2e150d" d="M 603.5,239.5 C 602.764,249.531 601.764,259.531 600.5,269.5C 599.842,268.207 599.508,266.707 599.5,265C 600.299,255.06 601.632,246.56 603.5,239.5 Z" data-index="4"></path></g>
<g><path style="opacity: 1;" fill="#b36f35" d="M 334.5,258.5 C 338.915,258.305 343.249,258.805 347.5,260C 380.167,273.333 412.833,286.667 445.5,300C 447.396,301.808 447.896,303.975 447,306.5C 445.269,308.617 443.102,310.117 440.5,311C 407.054,325.057 373.387,338.557 339.5,351.5C 304.278,337.89 269.278,323.723 234.5,309C 231.022,306.294 230.689,303.294 233.5,300C 267.226,286.043 300.893,272.21 334.5,258.5 Z" data-index="5"></path></g>
<g><path style="opacity:1" fill="#321a12" d="M 760.5,273.5 C 758.052,294.198 755.385,314.865 752.5,335.5C 751.848,334.551 751.514,333.385 751.5,332C 753.891,312.259 756.891,292.759 760.5,273.5 Z" data-index="6"></path></g>
<g><path style="opacity: 1; visibility: visible;" fill="#513421" d="M 248.5,329.5 C 271.692,338.591 295.025,347.424 318.5,356C 323.225,357.792 327.725,359.959 332,362.5C 332.667,393.833 332.667,425.167 332,456.5C 330.192,458.396 328.025,458.896 325.5,458C 296.333,445.388 267.333,432.388 238.5,419C 237.177,418.184 236.511,417.017 236.5,415.5C 236.333,386.831 236.5,358.165 237,329.5C 237.739,328.426 238.739,327.759 240,327.5C 242.791,328.406 245.624,329.073 248.5,329.5 Z" data-index="7"></path></g>
<g><path style="opacity: 1; visibility: visible;" fill="#b36f35" d="M 443.5,414.5 C 443.489,416.017 442.823,417.184 441.5,418C 411.131,431.52 380.798,445.02 350.5,458.5C 348.484,458.484 347.484,457.484 347.5,455.5C 347.333,424.832 347.5,394.165 348,363.5C 349.38,362.744 349.547,362.078 348.5,361.5C 375.202,350.596 402.202,340.263 429.5,330.5C 432.633,329.735 435.8,329.068 439,328.5C 440.436,328.559 441.769,328.892 443,329.5C 443.5,357.831 443.667,386.165 443.5,414.5 Z" data-index="8"></path></g>
<g><path style="opacity:1" fill="#a04a08" d="M 443.5,414.5 C 443.667,386.165 443.5,357.831 443,329.5C 441.769,328.892 440.436,328.559 439,328.5C 435.8,329.068 432.633,329.735 429.5,330.5C 432.64,328.504 436.14,327.171 440,326.5C 441.711,326.439 443.044,327.106 444,328.5C 444.83,357.336 444.664,386.003 443.5,414.5 Z" data-index="9"></path></g>
<g><path style="opacity:1" fill="#57795d" d="M 781.5,357.5 C 790.185,358.008 795.352,362.675 797,371.5C 800.09,387.197 804.424,402.53 810,417.5C 822.932,442.087 836.265,466.42 850,490.5C 858.979,508.252 863.146,527.085 862.5,547C 861.83,561.87 860.663,576.703 859,591.5C 853.008,631.182 863.675,665.515 891,694.5C 891.667,696.167 891.667,697.833 891,699.5C 871.379,725.456 848.212,747.623 821.5,766C 818.97,767.422 816.303,767.755 813.5,767C 801.636,752.103 790.136,736.936 779,721.5C 773.5,716 768,710.5 762.5,705C 738.319,690.078 714.652,674.412 691.5,658C 671.677,641.991 652.51,625.157 634,607.5C 628.655,598.428 629.822,590.261 637.5,583C 642.232,580.599 647.232,579.932 652.5,581C 668.509,589.009 682.842,599.342 695.5,612C 703.524,614.886 705.524,612.553 701.5,605C 671.702,578.87 642.202,552.37 613,525.5C 606.84,517.462 607.006,509.629 613.5,502C 619.325,499.077 625.325,498.744 631.5,501C 645.371,508.767 658.371,517.767 670.5,528C 681.833,538.667 693.167,549.333 704.5,560C 709.662,561.424 711.829,559.59 711,554.5C 687.317,533.482 664.317,511.815 642,489.5C 634.343,473.01 639.51,464.01 657.5,462.5C 660.924,462.482 664.257,462.982 667.5,464C 687.5,483.333 707.5,502.667 727.5,522C 733.593,526.283 736.427,524.783 736,517.5C 720.667,503.5 706,488.833 692,473.5C 691.503,471.19 691.337,468.857 691.5,466.5C 695.182,466.335 698.848,466.501 702.5,467C 726.969,477.145 749.802,489.979 771,505.5C 773.178,508.683 774.344,512.183 774.5,516C 771.16,534.014 767.826,552.014 764.5,570C 764.907,580.666 766.407,591.166 769,601.5C 771.966,604.265 774.633,603.932 777,600.5C 776.672,595.518 776.005,590.518 775,585.5C 774.333,576.833 774.333,568.167 775,559.5C 778.017,544.099 781.35,528.766 785,513.5C 785.667,504.167 785.667,494.833 785,485.5C 778.83,458.483 772.496,431.483 766,404.5C 764.502,394.545 764.169,384.545 765,374.5C 766.343,370.49 768.509,366.99 771.5,364C 775.009,361.97 778.342,359.804 781.5,357.5 Z" data-index="10"></path></g>
<g><path style="opacity:1" fill="#2d150e" d="M 750.5,347.5 C 749.167,358.5 747.833,369.5 746.5,380.5C 746.431,368.59 747.598,356.59 750,344.5C 750.483,345.448 750.649,346.448 750.5,347.5 Z" data-index="11"></path></g>
<g><path style="opacity:1" fill="#3c211b" d="M 248.5,329.5 C 245.624,329.073 242.791,328.406 240,327.5C 238.739,327.759 237.739,328.426 237,329.5C 236.5,358.165 236.333,386.831 236.5,415.5C 234.993,400.362 234.327,385.029 234.5,369.5C 234.441,355.807 234.941,342.14 236,328.5C 236.956,327.106 238.289,326.439 240,326.5C 243.187,326.828 246.02,327.828 248.5,329.5 Z" data-index="12"></path></g>
<g><path style="opacity:1" fill="#fcfbfb" d="M 585.5,376.5 C 588.85,376.335 592.183,376.502 595.5,377C 634.852,387.838 674.186,398.671 713.5,409.5C 714.019,417.204 714.019,424.871 713.5,432.5C 669.511,420.669 625.511,408.836 581.5,397C 572.92,393.356 571.254,387.689 576.5,380C 579.459,378.396 582.459,377.229 585.5,376.5 Z" data-index="13"></path></g>
<g><path style="opacity:1" fill="#9a4000" d="M 348.5,361.5 C 349.547,362.078 349.38,362.744 348,363.5C 347.5,394.165 347.333,424.832 347.5,455.5C 346.336,424.669 346.169,393.669 347,362.5C 347.383,361.944 347.883,361.611 348.5,361.5 Z" data-index="14"></path></g>
<g><path style="opacity:1" fill="#b26d34" d="M 450.5,487.5 C 466.626,490.104 469.792,498.104 460,511.5C 452.532,520.142 444.032,527.475 434.5,533.5C 421.418,529.917 408.084,527.917 394.5,527.5C 411.814,512.172 430.481,498.839 450.5,487.5 Z" data-index="15"></path></g>
<g><path style="opacity: 1;" fill="#b36f35" d="M 252.5,490.5 C 275.682,489.311 297.682,493.811 318.5,504C 341.589,517.699 365.922,528.699 391.5,537C 400.827,538.333 410.16,539.666 419.5,541C 435.658,544.099 441.158,553.266 436,568.5C 429.78,574.522 422.28,577.689 413.5,578C 406.5,578.667 399.5,578.667 392.5,578C 368.406,572.414 344.406,566.414 320.5,560C 317.007,558.996 313.841,559.496 311,561.5C 310.318,565.18 311.818,567.68 315.5,569C 336.892,574.015 358.225,579.348 379.5,585C 394.986,590.064 410.653,590.731 426.5,587C 434.64,583.934 441.307,578.934 446.5,572C 451.875,570.432 456.875,568.099 461.5,565C 472.328,557.419 483.328,550.085 494.5,543C 501.895,538.286 509.895,535.953 518.5,536C 527.831,538.828 531.331,544.994 529,554.5C 501.917,577.921 473.417,599.421 443.5,619C 410.821,633.226 377.321,645.059 343,654.5C 334.765,653.4 326.598,651.9 318.5,650C 298.061,643.279 277.728,636.279 257.5,629C 226.718,618.718 200.051,625.051 177.5,648C 175.086,649.885 172.419,650.552 169.5,650C 148.715,625.626 131.549,598.793 118,569.5C 117.333,567.5 117.333,565.5 118,563.5C 150.585,542.791 183.085,521.958 215.5,501C 227.302,495.137 239.635,491.637 252.5,490.5 Z" data-index="16"></path></g>
<g><path style="opacity:1" fill="#b26d34" d="M 487.5,500.5 C 494.375,499.523 500.208,501.523 505,506.5C 507.168,511.657 506.835,516.657 504,521.5C 497.483,528.682 490.316,535.182 482.5,541C 474.222,546.278 466.222,551.945 458.5,558C 456.35,559.411 454.016,560.245 451.5,560.5C 452.41,551.562 449.743,543.896 443.5,537.5C 444,536.5 444.5,535.5 445,534.5C 456.76,525.411 467.927,515.578 478.5,505C 481.592,503.454 484.592,501.954 487.5,500.5 Z" data-index="17"></path></g>
<g><path style="opacity:1" fill="#391e13" d="M 428.5,679.5 C 428.565,679.938 428.399,680.272 428,680.5C 427.535,679.069 426.701,677.903 425.5,677C 421.167,676.833 416.833,676.667 412.5,676.5C 396.785,677.446 381.118,677.779 365.5,677.5C 365.611,676.883 365.944,676.383 366.5,676C 385.838,675.366 405.171,675.033 424.5,675C 426.751,675.748 428.084,677.248 428.5,679.5 Z" data-index="18"></path></g>
<g><path style="opacity:1" fill="#4d3120" d="M 365.5,677.5 C 381.118,677.779 396.785,677.446 412.5,676.5C 416.833,676.667 421.167,676.833 425.5,677C 426.701,677.903 427.535,679.069 428,680.5C 428.399,680.272 428.565,679.938 428.5,679.5C 429.843,683.329 428.509,686.162 424.5,688C 412.831,688.63 401.165,689.296 389.5,690C 459.278,750.145 535.278,759.145 617.5,717C 635.813,706.157 651.813,692.49 665.5,676C 675.131,673.384 678.297,676.884 675,686.5C 639.211,727.48 594.045,750.647 539.5,756C 480.467,759.711 428.467,742.544 383.5,704.5C 383.167,704.667 382.833,704.833 382.5,705C 386.211,713.124 388.045,721.624 388,730.5C 383.925,734.41 379.925,734.41 376,730.5C 371.844,716.211 367.844,701.878 364,687.5C 363.333,684.5 363.333,681.5 364,678.5C 364.383,677.944 364.883,677.611 365.5,677.5 Z" data-index="19"></path></g>
</svg>